<svg xmlns="http://www.w3.org/2000/svg" width="400" height="286.231" viewBox="0 0 400 286.231">
    <path d="M116.822 47.13c-46.003 3.079-81.578 45.723-76.621 91.848.252 2.343.467 4.404.478 4.581.071 1.132.516-1.181.532-2.769.345-33.297 24.519-62.259 57.514-68.903 39.701-7.995 75.768 8.133 89.725 40.123 2.403 5.507 5.682 16.246 5.281 17.292-.17.443-54.664.625-55.318.185-.172-.115-.553-.854-.846-1.642-5.176-13.875-23.923-17.829-33.916-7.153-1.111 1.186-1.071 1.188 1.069.063 9.734-5.12 21.41 2.046 22.047 13.533.674 12.146-11.506 20.602-22.048 15.307-1.926-.968-1.965-.749-.151.855 10.843 9.589 27.974 5.437 33.018-8.002.296-.787.673-1.526.839-1.642.359-.251 55.098-.289 56.609-.04.758.126 1.084.342 1.182.785.074.336.792 2.985 1.596 5.886.804 2.902 1.668 6.638 1.92 8.304.63 4.168.677 4.363.992 4.168.153-.095.278-.519.279-.942.001-1.931 1.614-8.902 3.988-17.235.311-1.09-.101-1.075 29.876-1.111l27.994-.034.312.787c5.703 14.382 22.331 19.08 33.118 9.358 2.152-1.939 2.133-2.113-.109-1.011-7.15 3.514-16.217.404-19.86-6.813-6.979-13.824 6.706-28.934 20.099-22.192 2.248 1.132 2.392 1.025.716-.526-11.262-10.42-28.085-6.096-33.964 8.729l-.312.788h-27.62c-16.688 0-27.685-.106-27.784-.266-.233-.377 1.934-8.567 3.159-11.939l1.338-3.687c8.441-23.289 32.789-40.576 61.06-43.349 48.623-4.771 84.125 23.821 87.069 70.121.448 7.05 1.409-2.92 1.183-12.279-1.369-56.743-58.615-96.204-110.013-75.835-23.948 9.49-44.529 32.592-50 56.122-.433 1.864-.843 1.979-1.178.332-1.115-5.478-5.855-16.245-10.186-23.133-15.952-25.374-44.661-40.565-73.067-38.664M56.407 207.158v28.49H73.3v-18.955c0-11.226.105-18.844.257-18.683.142.15.519 1.174.838 2.276.32 1.103 1.288 4.259 2.152 7.015 3.716 11.858 5.778 18.482 7.128 22.907.794 2.598 1.539 4.831 1.656 4.963.215.239 1.572-3.866 5.997-18.134.66-2.126 1.825-5.863 2.589-8.304a540.369 540.369 0 0 0 2.149-7.015c1.473-5.004 1.423-5.507 1.502 14.961l.074 18.969h16.889v-56.986l-11.206.075-11.206.075-2.818 11.453c-1.549 6.299-3.055 12.355-3.345 13.457l-.527 2.005-3.102-12.599c-1.707-6.929-3.218-13.017-3.358-13.529l-.256-.93H56.407v28.489m79.259-23.693c-1.672 4.923-6.554 19.19-9.872 28.847a1020.55 1020.55 0 0 0-2.246 6.586c-.207.63-1.548 4.548-2.979 8.706-1.431 4.159-2.602 7.672-2.602 7.807 0 .134 4.268.211 9.485.169l9.485-.075 1.804-6.443c.992-3.543 1.975-6.957 2.183-7.587l.379-1.146 8.792-.075c8.643-.075 8.798-.066 9.11.518.263.491 2.211 5.846 4.84 13.301l.504 1.432 4.769.078c2.623.043 4.769-.012 4.769-.122 0-.111-4.214-12.934-9.365-28.497l-9.366-28.295h-9.031l-9.031.001-1.628 4.795m42.43 23.693v28.49h16.028l.075-12.67.074-12.67 1.782-.085c4.671-.223 8.784 9.224 9.988 22.944.242 2.763-.821 2.503 9.88 2.413l9.046-.075-1.372-4.725c-2.738-9.423-5.311-14.507-8.002-15.81l-.896-.435 1.861-1.041c2.258-1.262 3.98-3.135 5.169-5.62l.891-1.861v-10.022c0-12.413-.6-14.498-4.77-16.576l-1.499-.746h-38.255v28.489m51.25-28.346c-.001.078-.003 12.867-.004 28.418l-.002 28.275 8.594.075 8.594.076v-56.987h-8.59c-4.724 0-8.59.064-8.592.143m24.34 28.346v28.49h8.014l.074-23.094.073-23.094 2.827 7.704c2.191 5.97 9.509 25.684 13.834 37.27l.456 1.221 10.625-.075 10.626-.075.073-28.418.073-28.418h-7.734v22.104c0 16.69-.081 22.024-.33 21.775-.357-.358-1.814-4.021-6.291-15.819a1083.817 1083.817 0 0 0-4.411-11.453c-.843-2.126-2.2-5.67-3.015-7.874a427.392 427.392 0 0 0-2.047-5.441c-.31-.787-.703-1.85-.873-2.362l-.309-.93h-21.665v28.489m52.971 0v28.49h38.382l-.079-4.939-.078-4.939-10.523-.076-10.522-.075v-12.87l9.377-.075 9.377-.076v-10.88l-9.305-.143-9.306-.143v-12.885l10.523-.075 10.522-.075v-9.728h-38.368v28.489m-101.231-18.922c1.477.617 1.589 1.073 1.589 6.47v4.909l-.843.843-.844.844-5.241-.079-5.241-.078-.077-6.292c-.043-3.461-.015-6.457.062-6.657.21-.546 9.274-.512 10.595.04m-51.984 10.404c.822 2.638 1.922 6.149 2.445 7.802.523 1.654.999 3.2 1.057 3.436.104.419-11.527.84-12.532.454-.242-.093-.092-.897.525-2.798.476-1.466 1.547-4.792 2.38-7.391 2.18-6.799 1.912-6.299 3.382-6.299h1.249l1.494 4.796" fill="#2d65ac"/>
    <path d="M0 143.164v143.164h400V0H0v143.164m130.565-95.608c31.319 3.771 58.139 26.331 68.387 57.526.492 1.496.997 3.226 1.123 3.845.335 1.647.745 1.532 1.178-.332 5.471-23.53 26.052-46.632 50-56.122 51.398-20.369 108.644 19.092 110.013 75.835.226 9.359-.735 19.329-1.183 12.279-2.944-46.3-38.446-74.892-87.069-70.121-28.271 2.773-52.619 20.06-61.06 43.349l-1.338 3.687c-1.225 3.372-3.392 11.562-3.159 11.939.099.16 11.096.266 27.784.266h27.62l.312-.788c5.879-14.825 22.702-19.149 33.964-8.729 1.676 1.551 1.532 1.658-.716.526-13.393-6.742-27.078 8.368-20.099 22.192 3.643 7.217 12.71 10.327 19.86 6.813 2.242-1.102 2.261-.928.109 1.011-10.787 9.722-27.415 5.024-33.118-9.358l-.312-.787-27.994.034c-29.977.036-29.565.021-29.876 1.111-2.374 8.333-3.987 15.304-3.988 17.235-.001.423-.126.847-.279.942-.315.195-.362 0-.992-4.168-.252-1.666-1.116-5.402-1.92-8.304-.804-2.901-1.522-5.55-1.596-5.886-.098-.443-.424-.659-1.182-.785-1.511-.249-56.25-.211-56.609.04-.166.116-.543.855-.839 1.642-5.044 13.439-22.175 17.591-33.018 8.002-1.814-1.604-1.775-1.823.151-.855 10.542 5.295 22.722-3.161 22.048-15.307-.637-11.487-12.313-18.653-22.047-13.533-2.14 1.125-2.18 1.123-1.069-.063 9.993-10.676 28.74-6.722 33.916 7.153.293.788.674 1.527.846 1.642.654.44 55.148.258 55.318-.185.401-1.046-2.878-11.785-5.281-17.292-13.957-31.99-50.024-48.118-89.725-40.123-32.995 6.644-57.169 35.606-57.514 68.903-.016 1.588-.461 3.901-.532 2.769a414.55 414.55 0 0 0-.478-4.581c-5.561-51.746 39.687-97.523 90.364-91.422M78.969 179.599c.14.512 1.651 6.6 3.358 13.529l3.102 12.599.527-2.005c.29-1.102 1.796-7.158 3.345-13.457l2.818-11.453 11.206-.075 11.206-.075v56.986H97.642l-.074-18.969c-.079-20.468-.029-19.965-1.502-14.961a540.369 540.369 0 0 1-2.149 7.015 4558.73 4558.73 0 0 0-2.589 8.304c-4.425 14.268-5.782 18.373-5.997 18.134-.117-.132-.862-2.365-1.656-4.963-1.35-4.425-3.412-11.049-7.128-22.907a492.565 492.565 0 0 1-2.152-7.015c-.319-1.102-.696-2.126-.838-2.276-.152-.161-.257 7.457-.257 18.683v18.955H56.407v-56.979h22.306l.256.93m85.753 27.365c5.151 15.563 9.365 28.386 9.365 28.497 0 .11-2.146.165-4.769.122l-4.769-.078-.504-1.432c-2.629-7.455-4.577-12.81-4.84-13.301-.312-.584-.467-.593-9.11-.518l-8.792.075-.379 1.146c-.208.63-1.191 4.044-2.183 7.587l-1.804 6.443-9.485.075c-5.217.042-9.485-.035-9.485-.169 0-.135 1.171-3.648 2.602-7.807 1.431-4.158 2.772-8.076 2.979-8.706.207-.63 1.218-3.594 2.246-6.586 3.318-9.657 8.2-23.924 9.872-28.847l1.628-4.795 9.031-.001h9.031l9.366 28.295m53.128-27.549c4.17 2.078 4.77 4.163 4.77 16.576v10.022l-.891 1.861c-1.189 2.485-2.911 4.358-5.169 5.62l-1.861 1.041.896.435c2.691 1.303 5.264 6.387 8.002 15.81l1.372 4.725-9.046.075c-10.701.09-9.638.35-9.88-2.413-1.204-13.72-5.317-23.167-9.988-22.944l-1.782.085-.074 12.67-.075 12.67h-16.028v-56.979h38.255l1.499.746m28.678 27.747v28.494l-8.594-.076-8.594-.075.002-28.275c.001-15.551.003-28.34.004-28.418.002-.079 3.868-.143 8.592-.143h8.59v28.493m29.132-27.563c.17.512.563 1.575.873 2.362.31.788 1.231 3.236 2.047 5.441a438.496 438.496 0 0 0 3.015 7.874c.843 2.126 2.828 7.279 4.411 11.453 4.477 11.798 5.934 15.461 6.291 15.819.249.249.33-5.085.33-21.775v-22.104h7.734l-.073 28.418-.073 28.418-10.626.075-10.625.075-.456-1.221c-4.325-11.586-11.643-31.3-13.834-37.27l-2.827-7.704-.073 23.094-.074 23.094h-8.014v-56.979h21.665l.309.93m69.365 3.934v4.864l-10.522.075-10.523.075v12.885l9.306.143 9.305.143v10.88l-9.377.076-9.377.075v12.87l10.522.075 10.523.076.078 4.939.079 4.939h-38.382v-56.979h38.368v4.864m-150.194 4.663c-.077.2-.105 3.196-.062 6.657l.077 6.292 5.241.078 5.241.079.844-.844.843-.843v-4.909c0-5.397-.112-5.853-1.589-6.47-1.321-.552-10.385-.586-10.595-.04m-45.691 6.435c-.169.433-.99 2.914-1.823 5.512-.833 2.599-1.904 5.925-2.38 7.391-.617 1.901-.767 2.705-.525 2.798 1.005.386 12.636-.035 12.532-.454-.058-.236-.534-1.782-1.057-3.436-.523-1.653-1.623-5.164-2.445-7.802l-1.494-4.796h-1.249c-1.098 0-1.288.096-1.559.787" fill="#fcfcfc"/>
  </svg>
  